<svg width="19" height="18" viewBox="0 0 19 18" fill="none" xmlns="http://www.w3.org/2000/svg">
<path d="M11.3326 10.7357C9.83977 12.195 9.7312 14.0143 9.60227 18C13.5244 18 16.2319 17.9871 17.6298 16.7014C18.9869 15.3771 19.0005 12.69 19.0005 9.09643C14.7933 9.225 12.873 9.32143 11.3326 10.7357ZM0.000488281 9.09643C0.000488281 12.69 0.0140597 15.3771 1.3712 16.7014C2.76906 17.9871 5.47656 18 9.3987 18C9.26299 14.0143 9.1612 12.195 7.66835 10.7357C6.12799 9.32143 4.20763 9.21857 0.000488281 9.09643ZM9.3987 0C5.48335 0 2.76906 0.0128571 1.3712 1.29857C0.0140597 2.62286 0.000488281 5.31 0.000488281 8.90357C4.20763 8.775 6.12799 8.67857 7.66835 7.26429C9.1612 5.805 9.26977 3.98571 9.3987 0ZM11.3326 7.26429C9.83977 5.805 9.7312 3.98571 9.60227 0C13.5244 0 16.2319 0.0128571 17.6298 1.29857C18.9869 2.62286 19.0005 5.31 19.0005 8.90357C14.7933 8.775 12.873 8.67857 11.3326 7.26429Z" fill="#888888"/>
</svg>
